<svg width="1200" height="420" viewBox="0 0 1200 420" xmlns="http://www.w3.org/2000/svg" font-family="Verdana, Segoe UI, sans-serif">
  <defs>
    <linearGradient id="bg" x1="0%" y1="0%" x2="100%" y2="100%">
      <stop offset="0%" style="stop-color:#1a202c;stop-opacity:1" />
      <stop offset="100%" style="stop-color:#2d3748;stop-opacity:1" />
    </linearGradient>
    <marker id="arrow" markerWidth="10" markerHeight="10" refX="8" refY="3" orient="auto" markerUnits="strokeWidth">
      <path d="M0,0 L0,6 L9,3 z" fill="#68d391" />
    </marker>
  </defs>

  <rect width="1200" height="420" fill="url(#bg)"/>

  <g transform="translate(0, -45)">
  <rect x="30" y="230" width="180" height="90" rx="10" fill="#2d3748" stroke="#4a5568" stroke-width="2"/>
  <text x="120" y="270" fill="#f7fafc" font-size="18" text-anchor="middle" font-weight="bold">Visitor</text>
  <text x="120" y="292" fill="#a0aec0" font-size="13" text-anchor="middle">browser / phone</text>

  <rect x="290" y="200" width="220" height="150" rx="10" fill="#22543d" stroke="#68d391" stroke-width="2"/>
  <text x="400" y="240" fill="#f7fafc" font-size="18" text-anchor="middle" font-weight="bold">VPS</text>
  <text x="400" y="264" fill="#a0aec0" font-size="13" text-anchor="middle">public IP</text>
  <rect x="315" y="285" width="170" height="40" rx="6" fill="#1a365d"/>
  <text x="400" y="310" fill="#e2e8f0" font-size="14" text-anchor="middle">Caddy (public)</text>

  <rect x="590" y="210" width="230" height="115" rx="10" fill="#2c3e50" stroke="#4299e1" stroke-width="2"/>
  <text x="705" y="244" fill="#f7fafc" font-size="18" text-anchor="middle" font-weight="bold">Home server</text>
  <text x="705" y="266" fill="#a0aec0" font-size="13" text-anchor="middle">no public IP</text>
  <rect x="615" y="280" width="180" height="40" rx="6" fill="#1a365d"/>
  <text x="705" y="305" fill="#e2e8f0" font-size="14" text-anchor="middle">Caddy (private)</text>

  <rect x="920" y="130" width="250" height="52" rx="8" fill="#1a365d" stroke="#4a5568" stroke-width="1.5"/>
  <text x="1045" y="163" fill="#e2e8f0" font-size="14" text-anchor="middle">Immich</text>

  <rect x="920" y="200" width="250" height="52" rx="8" fill="#1a365d" stroke="#4a5568" stroke-width="1.5"/>
  <text x="1045" y="233" fill="#e2e8f0" font-size="14" text-anchor="middle">Jellyfin</text>

  <rect x="920" y="270" width="250" height="52" rx="8" fill="#1a365d" stroke="#4a5568" stroke-width="1.5"/>
  <text x="1045" y="303" fill="#e2e8f0" font-size="14" text-anchor="middle">Home Assistant</text>

  <rect x="920" y="340" width="250" height="52" rx="8" fill="#1a365d" stroke="#4a5568" stroke-width="1.5"/>
  <text x="1045" y="373" fill="#e2e8f0" font-size="14" text-anchor="middle">... other services</text>

  <line x1="210" y1="275" x2="285" y2="275" stroke="#68d391" stroke-width="2.5" marker-end="url(#arrow)"/>
  <text x="247" y="260" fill="#c6f6d5" font-size="13" text-anchor="middle">HTTPS</text>

  <line x1="510" y1="260" x2="585" y2="260" stroke="#63b3ed" stroke-width="2.5" marker-end="url(#arrow)"/>
  <line x1="585" y1="290" x2="510" y2="290" stroke="#63b3ed" stroke-width="2.5" marker-end="url(#arrow)"/>
  <text x="547" y="245" fill="#bee3f8" font-size="12" text-anchor="middle">SSH tunnel</text>

  <line x1="795" y1="300" x2="915" y2="156" stroke="#4a5568" stroke-width="2" marker-end="url(#arrow)"/>
  <line x1="795" y1="300" x2="915" y2="226" stroke="#4a5568" stroke-width="2" marker-end="url(#arrow)"/>
  <line x1="795" y1="300" x2="915" y2="296" stroke="#4a5568" stroke-width="2" marker-end="url(#arrow)"/>
  <line x1="795" y1="300" x2="915" y2="366" stroke="#4a5568" stroke-width="2" marker-end="url(#arrow)"/>
  </g>
</svg>
