<svg width="1200" height="630" viewBox="0 0 1200 630" xmlns="http://www.w3.org/2000/svg">
  <!-- Background gradient -->
  <defs>
    <linearGradient id="bgGradient" x1="0%" y1="0%" x2="100%" y2="100%">
      <stop offset="0%" style="stop-color:#1a202c;stop-opacity:1" />
      <stop offset="100%" style="stop-color:#2d3748;stop-opacity:1" />
    </linearGradient>
    <linearGradient id="serverGlow" x1="0%" y1="0%" x2="0%" y2="100%">
      <stop offset="0%" style="stop-color:#4299e1;stop-opacity:0.3" />
      <stop offset="100%" style="stop-color:#4299e1;stop-opacity:0" />
    </linearGradient>
  </defs>
  
  <rect width="1200" height="630" fill="url(#bgGradient)"/>
  
  <!-- Grid pattern overlay -->
  <g opacity="0.03">
    <path d="M 0 0 L 1200 0 L 1200 630 L 0 630 Z" fill="none" stroke="#fff" stroke-width="1"/>
    <line x1="0" y1="63" x2="1200" y2="63" stroke="#fff" stroke-width="1"/>
    <line x1="0" y1="126" x2="1200" y2="126" stroke="#fff" stroke-width="1"/>
    <line x1="0" y1="189" x2="1200" y2="189" stroke="#fff" stroke-width="1"/>
    <line x1="0" y1="252" x2="1200" y2="252" stroke="#fff" stroke-width="1"/>
    <line x1="0" y1="315" x2="1200" y2="315" stroke="#fff" stroke-width="1"/>
    <line x1="0" y1="378" x2="1200" y2="378" stroke="#fff" stroke-width="1"/>
    <line x1="0" y1="441" x2="1200" y2="441" stroke="#fff" stroke-width="1"/>
    <line x1="0" y1="504" x2="1200" y2="504" stroke="#fff" stroke-width="1"/>
    <line x1="0" y1="567" x2="1200" y2="567" stroke="#fff" stroke-width="1"/>
  </g>
  
  <!-- Server illustration -->
  <g transform="translate(700, 150)">
    <!-- Server rack with glow -->
    <rect x="-10" y="-10" width="360" height="360" fill="url(#serverGlow)" rx="20"/>
    
    <!-- Main rack -->
    <rect x="0" y="0" width="340" height="340" fill="#2d3748" stroke="#4a5568" stroke-width="4" rx="12"/>
    
    <!-- Server unit 1 -->
    <rect x="20" y="20" width="300" height="70" fill="#3c4657" stroke="#5a6b7f" stroke-width="3" rx="6"/>
    <circle cx="45" cy="55" r="8" fill="#48bb78"/>
    <circle cx="65" cy="55" r="8" fill="#48bb78"/>
    <rect x="90" y="35" width="180" height="8" fill="#1a202c" rx="3"/>
    <rect x="90" y="50" width="180" height="8" fill="#1a202c" rx="3"/>
    <rect x="90" y="65" width="100" height="8" fill="#1a202c" rx="3"/>
    
    <!-- Server unit 2 -->
    <rect x="20" y="105" width="300" height="70" fill="#3c4657" stroke="#5a6b7f" stroke-width="3" rx="6"/>
    <circle cx="45" cy="140" r="8" fill="#48bb78"/>
    <circle cx="65" cy="140" r="8" fill="#f6ad55"/>
    <rect x="90" y="120" width="180" height="8" fill="#1a202c" rx="3"/>
    <rect x="90" y="135" width="180" height="8" fill="#1a202c" rx="3"/>
    <rect x="90" y="150" width="120" height="8" fill="#1a202c" rx="3"/>
    
    <!-- Server unit 3 -->
    <rect x="20" y="190" width="300" height="70" fill="#3c4657" stroke="#5a6b7f" stroke-width="3" rx="6"/>
    <circle cx="45" cy="225" r="8" fill="#48bb78"/>
    <circle cx="65" cy="225" r="8" fill="#48bb78"/>
    <rect x="90" y="205" width="180" height="8" fill="#1a202c" rx="3"/>
    <rect x="90" y="220" width="180" height="8" fill="#1a202c" rx="3"/>
    <rect x="90" y="235" width="140" height="8" fill="#1a202c" rx="3"/>
    
    <!-- Network switch -->
    <rect x="20" y="275" width="300" height="45" fill="#2c5282" stroke="#4299e1" stroke-width="3" rx="6"/>
    <circle cx="40" cy="297.5" r="6" fill="#63b3ed"/>
    <circle cx="60" cy="297.5" r="6" fill="#63b3ed"/>
    <circle cx="80" cy="297.5" r="6" fill="#4299e1"/>
    <circle cx="100" cy="297.5" r="6" fill="#63b3ed"/>
    <circle cx="120" cy="297.5" r="6" fill="#63b3ed"/>
    <circle cx="140" cy="297.5" r="6" fill="#63b3ed"/>
  </g>
  
  <!-- Home icon -->
  <g transform="translate(950, 80)">
    <path d="M 0 30 L 40 0 L 80 30 L 80 85 L 55 85 L 55 50 L 25 50 L 25 85 L 0 85 Z" 
          fill="#ed8936" stroke="#dd6b20" stroke-width="3" stroke-linejoin="round"/>
    <rect x="32" y="60" width="16" height="25" fill="#dd6b20"/>
    <circle cx="60" cy="67" r="3" fill="#fbd38d"/>
  </g>
  
  <!-- Title -->
  <text x="80" y="220" font-family="Arial, sans-serif" font-size="72" font-weight="bold" fill="#ffffff">
    What to Buy for a
  </text>
  <text x="80" y="300" font-family="Arial, sans-serif" font-size="72" font-weight="bold" fill="#63b3ed">
    Small &amp; Cheap
  </text>
  <text x="80" y="380" font-family="Arial, sans-serif" font-size="72" font-weight="bold" fill="#ffffff">
    Home Lab
  </text>
  
  <!-- Subtitle -->
  <text x="80" y="450" font-family="Arial, sans-serif" font-size="32" fill="#a0aec0">
    Complete hardware guide for beginners
  </text>
  
  <!-- Price tag -->
  <g transform="translate(80, 500)">
    <rect x="0" y="0" width="280" height="60" fill="#48bb78" rx="8"/>
    <text x="140" y="40" font-family="Arial, sans-serif" font-size="32" font-weight="bold" 
          fill="#ffffff" text-anchor="middle">Budget: ~$300-400</text>
  </g>
  
  <!-- Decorative elements -->
  <circle cx="1100" cy="550" r="40" fill="#4299e1" opacity="0.1"/>
  <circle cx="150" cy="80" r="30" fill="#ed8936" opacity="0.1"/>
  <circle cx="1050" cy="450" r="25" fill="#48bb78" opacity="0.1"/>
</svg>
