<svg width="1200" height="630" viewBox="0 0 1200 630" xmlns="http://www.w3.org/2000/svg">
  <!-- Background gradient -->
  <defs>
    <linearGradient id="bgGradient" x1="0%" y1="0%" x2="100%" y2="100%">
      <stop offset="0%" style="stop-color:#1a202c;stop-opacity:1" />
      <stop offset="100%" style="stop-color:#2d3748;stop-opacity:1" />
    </linearGradient>
    <linearGradient id="btGlow" x1="0%" y1="0%" x2="0%" y2="100%">
      <stop offset="0%" style="stop-color:#18BCF2;stop-opacity:0.30" />
      <stop offset="100%" style="stop-color:#18BCF2;stop-opacity:0" />
    </linearGradient>
  </defs>

  <rect width="1200" height="630" fill="url(#bgGradient)"/>

  <!-- Grid pattern overlay -->
  <g opacity="0.03">
    <line x1="0" y1="63" x2="1200" y2="63" stroke="#fff" stroke-width="1"/>
    <line x1="0" y1="126" x2="1200" y2="126" stroke="#fff" stroke-width="1"/>
    <line x1="0" y1="189" x2="1200" y2="189" stroke="#fff" stroke-width="1"/>
    <line x1="0" y1="252" x2="1200" y2="252" stroke="#fff" stroke-width="1"/>
    <line x1="0" y1="315" x2="1200" y2="315" stroke="#fff" stroke-width="1"/>
    <line x1="0" y1="378" x2="1200" y2="378" stroke="#fff" stroke-width="1"/>
    <line x1="0" y1="441" x2="1200" y2="441" stroke="#fff" stroke-width="1"/>
    <line x1="0" y1="504" x2="1200" y2="504" stroke="#fff" stroke-width="1"/>
    <line x1="0" y1="567" x2="1200" y2="567" stroke="#fff" stroke-width="1"/>
  </g>

  <!-- Glow behind the device cluster -->
  <rect x="760" y="60" width="380" height="500" fill="url(#btGlow)" rx="40"/>

  <!-- ============ Home Assistant logo (top) ============ -->
  <g transform="translate(865,55) scale(0.45)">
    <path d="M320 301.762C320 310.012 313.25 316.762 305 316.762H95C86.75 316.762 80 310.012 80 301.762V211.762C80 203.512 84.77 191.993 90.61 186.153L189.39 87.3725C195.22 81.5425 204.77 81.5425 210.6 87.3725L309.39 186.162C315.22 191.992 320 203.522 320 211.772V301.772V301.762Z" fill="#F2F4F9"/>
    <path d="M309.39 186.153L210.61 87.3725C204.78 81.5425 195.23 81.5425 189.4 87.3725L90.61 186.153C84.78 191.983 80 203.512 80 211.762V301.762C80 310.012 86.75 316.762 95 316.762H187.27L146.64 276.132C144.55 276.852 142.32 277.262 140 277.262C128.7 277.262 119.5 268.062 119.5 256.762C119.5 245.462 128.7 236.262 140 236.262C151.3 236.262 160.5 245.462 160.5 256.762C160.5 259.092 160.09 261.322 159.37 263.412L191 295.042V179.162C184.2 175.822 179.5 168.842 179.5 160.772C179.5 149.472 188.7 140.272 200 140.272C211.3 140.272 220.5 149.472 220.5 160.772C220.5 168.842 215.8 175.822 209 179.162V260.432L240.46 228.972C239.84 227.012 239.5 224.932 239.5 222.772C239.5 211.472 248.7 202.272 260 202.272C271.3 202.272 280.5 211.472 280.5 222.772C280.5 234.072 271.3 243.272 260 243.272C257.5 243.272 255.12 242.802 252.91 241.982L209 285.892V316.772H305C313.25 316.772 320 310.022 320 301.772V211.772C320 203.522 315.23 192.002 309.39 186.162V186.153Z" fill="#18BCF2"/>
  </g>


  <!-- ============ Raspberry Pi board (middle) ============ -->
  <g transform="translate(835,250)">
    <rect x="0" y="0" width="240" height="135" rx="10" fill="#1f7a4d" stroke="#2fae6e" stroke-width="3"/>
    <!-- mounting holes -->
    <circle cx="16" cy="16" r="6" fill="#163b2c"/>
    <circle cx="224" cy="16" r="6" fill="#163b2c"/>
    <circle cx="16" cy="119" r="6" fill="#163b2c"/>
    <circle cx="224" cy="119" r="6" fill="#163b2c"/>
    <!-- GPIO header -->
    <rect x="30" y="10" width="180" height="18" rx="3" fill="#2b2b2b"/>
    <g fill="#f6c453">
      <rect x="36" y="14" width="6" height="10"/><rect x="48" y="14" width="6" height="10"/>
      <rect x="60" y="14" width="6" height="10"/><rect x="72" y="14" width="6" height="10"/>
      <rect x="84" y="14" width="6" height="10"/><rect x="96" y="14" width="6" height="10"/>
      <rect x="108" y="14" width="6" height="10"/><rect x="120" y="14" width="6" height="10"/>
      <rect x="132" y="14" width="6" height="10"/><rect x="144" y="14" width="6" height="10"/>
      <rect x="156" y="14" width="6" height="10"/><rect x="168" y="14" width="6" height="10"/>
      <rect x="180" y="14" width="6" height="10"/><rect x="192" y="14" width="6" height="10"/>
    </g>
    <!-- SoC chip -->
    <rect x="70" y="48" width="58" height="58" rx="4" fill="#111" stroke="#444" stroke-width="2"/>
    <text x="99" y="82" font-family="Arial, sans-serif" font-size="13" font-weight="bold" fill="#888" text-anchor="middle">Pi 3</text>
    <!-- smaller chip + BT/wifi module -->
    <rect x="150" y="55" width="30" height="30" rx="3" fill="#161616" stroke="#444" stroke-width="2"/>
    <rect x="150" y="95" width="40" height="22" rx="3" fill="#c0c0c0"/>
    <!-- ports on left edge -->
    <rect x="-6" y="50" width="10" height="26" rx="2" fill="#3a3a3a"/>
    <rect x="-6" y="86" width="10" height="26" rx="2" fill="#3a3a3a"/>
  </g>

  <!-- Bluetooth link: Pi -> speaker -->
  <g transform="translate(840,430)">
    <!-- Bluetooth rune -->
    <g transform="translate(0,0) scale(2.6)" stroke="#18BCF2" stroke-width="2.6" fill="none" stroke-linejoin="round" stroke-linecap="round">
      <path d="M -5 -5 L 5 5 L 0 10 L 0 -10 L 5 -5 L -5 5"/>
    </g>
    <!-- waves toward speaker -->
    <g transform="translate(40,0)" stroke="#18BCF2" fill="none" stroke-linecap="round">
      <path d="M 6 -16 A 22 22 0 0 1 6 16" stroke-width="4" opacity="0.9"/>
      <path d="M 22 -26 A 36 36 0 0 1 22 26" stroke-width="4" opacity="0.55"/>
    </g>
  </g>

  <!-- ============ Speaker (bottom right) ============ -->
  <g transform="translate(965,400)">
    <rect x="0" y="0" width="120" height="170" rx="14" fill="#2d3748" stroke="#5a6b7f" stroke-width="4"/>
    <!-- tweeter -->
    <circle cx="60" cy="42" r="16" fill="#1a202c" stroke="#718096" stroke-width="3"/>
    <circle cx="60" cy="42" r="5" fill="#4a5568"/>
    <!-- woofer -->
    <circle cx="60" cy="115" r="34" fill="#1a202c" stroke="#718096" stroke-width="3"/>
    <circle cx="60" cy="115" r="22" fill="#252d3a" stroke="#4a5568" stroke-width="2"/>
    <circle cx="60" cy="115" r="9" fill="#4a5568"/>
    <!-- power LED -->
    <circle cx="60" cy="160" r="3.5" fill="#48bb78"/>
  </g>

  <!-- ============ Title ============ -->
  <text x="80" y="200" font-family="Arial, sans-serif" font-size="66" font-weight="bold" fill="#ffffff">
    A Baby Cradle
  </text>
  <text x="80" y="276" font-family="Arial, sans-serif" font-size="66" font-weight="bold" fill="#ffffff">
    as a Home Assistant
  </text>
  <text x="80" y="352" font-family="Arial, sans-serif" font-size="66" font-weight="bold" fill="#18BCF2">
    Speaker
  </text>

  <!-- Subtitle -->
  <text x="80" y="432" font-family="Arial, sans-serif" font-size="32" fill="#a0aec0">
    Smart home &#183; Bluetooth + MPD on a Raspberry Pi
  </text>

  <!-- Decorative elements -->
  <circle cx="150" cy="90" r="30" fill="#18BCF2" opacity="0.10"/>
  <circle cx="120" cy="540" r="40" fill="#48bb78" opacity="0.08"/>
  <circle cx="700" cy="560" r="22" fill="#18BCF2" opacity="0.10"/>
</svg>
